<svg fill="#ffffff" height="200px" width="200px" version="1.1" id="Layer_1" xmlns="http://www.w3.org/2000/svg" xmlns:xlink="http://www.w3.org/1999/xlink" viewBox="0 0 508.025 508.025" xml:space="preserve"><g id="SVGRepo_bgCarrier" stroke-width="0"></g><g id="SVGRepo_tracerCarrier" stroke-linecap="round" stroke-linejoin="round"></g><g id="SVGRepo_iconCarrier"> <g> <g> <path d="M473.812,420.025c0-0.2,1.4-44.9,22.9-66.3c3.8-3.8,3.9-10,1.6-14.9c-2.4-4.9-7.3-8-12.7-8h-388.7 c-48.8,0-88.6,39.7-88.6,88.6c0,48.8,39.7,88.6,88.6,88.6h388.7c5.4,0,10.3-3.1,12.7-8c2.4-4.9,1.7-10.6-1.6-14.9 C481.512,466.025,473.913,443.025,473.812,420.025z M100.812,433.525h345.5c1.7,15.9,6.2,31.6,13.6,46.2h-363 c-33.3,0-60.4-27.1-60.4-60.4s27.1-60.4,60.4-60.4h363c-7.4,14.7-11.9,30.3-13.6,46.2h-345.5c-7.8,0-14.1,6.3-14.1,14.1 C86.712,427.225,93.012,433.525,100.812,433.525z"></path> </g> </g> <g> <g> <path d="M497.812,68.925l-239.9-68.4c-2.5-0.7-5.2-0.7-7.7,0l-240,68.4c-6,1.8-10.2,7.3-10.2,13.6s4.2,11.8,10.2,13.6l88.7,25.3 v166.5c0,5.1,2.8,9.8,7.2,12.3c4.5,2.5,9.9,2.4,14.3-0.3c44.5-27.3,89.4-41.1,133.6-41.1s89,13.8,133.6,41.1 c2.3,1.4,9.1,3.2,14.3,0.3c4.5-2.5,7.2-7.2,7.2-12.3v-166.5l46.7-13.3v78.2c0,7.8,6.3,14.1,14.1,14.1s14.1-6.3,14.1-14.1v-86.3 l13.8-3.9c6.1-1.7,10.2-7.3,10.2-13.6C508.012,76.225,503.812,70.725,497.812,68.925z M127.212,263.725v-134.2l122.9,35.1 c2.5,0.7,5.2,0.7,7.7,0l122.9-35.1v134.149c-42.067-21.965-84.533-33.049-126.7-33.049 C211.812,230.625,169.212,241.725,127.212,263.725z M254.012,136.325l-188.4-53.8l188.4-53.7l188.4,53.7L254.012,136.325z"></path> </g> </g> </g></svg>
