<svg xmlns="http://www.w3.org/2000/svg" viewBox="0 0 500 500"><g id="freepik--background-complete--inject-55"><rect x="67.77" y="51.04" width="35.16" height="11.19" style="fill:#ebebeb"></rect><rect x="159.18" y="275.52" width="35.16" height="11.19" style="fill:#ebebeb"></rect><path d="M83.32,36.93c-5.84.1-20.81.35-26.45.42l-8.71,0,.46-.46,0,11.19-.5-.5c5.84,0,20.73.08,26.37.16l8.79.11-.24.23.24-11.19Zm0,0,.23,11.19v.24h-.24c-4.39.06-13.2.16-17.58.19l-17.58.07h-.5v-.5l0-11.19v-.45h.45l8.87,0c5.6.06,20.5.31,26.29.41Z" style="fill:#ebebeb"></path><path d="M368.46,342.23c-5.84.1-20.81.35-26.45.41l-8.71.05.46-.46,0,11.19-.5-.5c5.84,0,20.73.07,26.37.15l8.79.11-.24.24.24-11.19Zm0,0,.24,11.19v.24h-.24c-4.39.06-13.2.16-17.58.19l-17.58.07h-.5v-.5l.05-11.19v-.46h.45l8.87,0c5.6.06,20.51.31,26.29.41Z" style="fill:#ebebeb"></path><path d="M348.85,328.12c-5.84.1-20.81.35-26.45.41l-8.71.05.46-.46,0,11.19-.5-.5c5.84,0,20.73.07,26.37.15l8.79.11-.24.24.24-11.19Zm0,0,.23,11.19v.24h-.24c-4.39.06-13.2.16-17.58.19l-17.58.07h-.5v-.5l0-11.19v-.46h.45l8.87,0c5.6.06,20.5.31,26.29.41Z" style="fill:#ebebeb"></path><rect x="294.15" y="342.23" width="35.16" height="11.19" style="fill:#ebebeb"></rect><rect x="416.68" y="36.93" width="35.16" height="11.19" style="fill:#ebebeb"></rect><rect x="397.07" y="428.89" width="35.16" height="11.19" style="fill:#ebebeb"></rect><path d="M451.84,414.78c-5.84.1-20.81.35-26.45.42l-8.71,0,.46-.46,0,11.19-.5-.5c5.84,0,20.73.07,26.37.16l8.79.1-.24.24.24-11.19Zm0,0,.24,11.19v.24h-.24c-4.39.06-13.19.16-17.58.19l-17.58.07h-.5V426l.05-11.19v-.46h.45l8.87,0c5.6.06,20.51.31,26.29.41Z" style="fill:#ebebeb"></path><path d="M102.93,428.89c-5.84.1-20.81.35-26.45.41l-8.71.05.46-.46,0,11.19-.5-.5c5.84,0,20.73.07,26.37.15l8.79.11-.24.24.24-11.19Zm0,0,.24,11.19v.24h-.24c-4.39.06-13.2.16-17.58.19l-17.58.07h-.5v-.5l0-11.19v-.46h.45l8.87,0c5.6.06,20.5.31,26.29.41Z" style="fill:#ebebeb"></path><rect x="379.81" y="68.65" width="72.04" height="47.04" style="fill:#dbdbdb"></rect><rect x="379.81" y="118.44" width="72.04" height="47.04" style="fill:#ebebeb"></rect><rect x="386.93" y="127.48" width="7" height="7" style="fill:#fff"></rect><rect x="395.39" y="127.48" width="7" height="7" style="fill:#c7c7c7"></rect><rect x="403.86" y="127.48" width="7" height="7" style="fill:#fff"></rect><rect x="412.32" y="127.48" width="7" height="7" style="fill:#fff"></rect><rect x="420.78" y="127.48" width="7" height="7" style="fill:#fff"></rect><rect x="429.25" y="127.48" width="7" height="7" style="fill:#fff"></rect><rect x="437.71" y="127.48" width="7" height="7" style="fill:#fff"></rect><rect x="386.93" y="136.01" width="7" height="7" style="fill:#fff"></rect><rect x="395.39" y="136.01" width="7" height="7" style="fill:#fff"></rect><rect x="403.86" y="136.01" width="7" height="7" style="fill:#fff"></rect><rect x="412.32" y="136.01" width="7" height="7" style="fill:#fff"></rect><rect x="420.78" y="136.01" width="7" height="7" style="fill:#c7c7c7"></rect><rect x="429.25" y="136.01" width="7" height="7" style="fill:#fff"></rect><rect x="437.71" y="136.01" width="7" height="7" style="fill:#fff"></rect><rect x="386.93" y="144.53" width="7" height="7" style="fill:#fff"></rect><rect x="395.39" y="144.53" width="7" height="7" style="fill:#fff"></rect><rect x="403.86" y="144.53" width="7" height="7" style="fill:#fff"></rect><rect x="412.32" y="144.53" width="7" height="7" style="fill:#fff"></rect><rect x="420.78" y="144.53" width="7" height="7" style="fill:#fff"></rect><rect x="429.25" y="144.53" width="7" height="7" style="fill:#fff"></rect><rect x="437.71" y="144.53" width="7" height="7" style="fill:#fff"></rect><rect x="386.93" y="153.05" width="7" height="7" style="fill:#fff"></rect><rect x="395.39" y="153.05" width="7" height="7" style="fill:#fff"></rect><rect x="403.86" y="153.05" width="7" height="7" style="fill:#c7c7c7"></rect><rect x="412.32" y="153.05" width="7" height="7" style="fill:#fff"></rect><rect x="420.78" y="153.05" width="7" height="7" style="fill:#fff"></rect><rect x="429.25" y="153.05" width="7" height="7" style="fill:#fff"></rect><rect x="437.71" y="153.05" width="7" height="7" style="fill:#fff"></rect><rect x="382.63" y="113.45" width="2.73" height="7.23" style="fill:#c7c7c7"></rect><rect x="388.99" y="113.45" width="2.73" height="7.23" style="fill:#c7c7c7"></rect><rect x="395.36" y="113.45" width="2.73" height="7.23" style="fill:#c7c7c7"></rect><rect x="401.72" y="113.45" width="2.73" height="7.23" style="fill:#c7c7c7"></rect><rect x="408.09" y="113.45" width="2.73" height="7.23" style="fill:#c7c7c7"></rect><rect x="414.46" y="113.45" width="2.73" height="7.23" style="fill:#c7c7c7"></rect><rect x="420.82" y="113.45" width="2.73" height="7.23" style="fill:#c7c7c7"></rect><rect x="427.19" y="113.45" width="2.73" height="7.23" style="fill:#c7c7c7"></rect><rect x="433.55" y="113.45" width="2.73" height="7.23" style="fill:#c7c7c7"></rect><rect x="439.92" y="113.45" width="2.73" height="7.23" style="fill:#c7c7c7"></rect><rect x="446.28" y="113.45" width="2.73" height="7.23" style="fill:#c7c7c7"></rect><path d="M417,73.46a1.15,1.15,0,0,1-2.3,0,1.15,1.15,0,1,1,2.3,0Z" style="fill:#263238"></path><path d="M264.86,283.52V468.77H374V283.52Zm99.22,113.91H274.77v-47h89.31Zm0-58.19H274.77v-47h89.31Z" style="fill:#dbdbdb"></path><rect x="374" y="283.52" width="49.35" height="185.24" style="fill:#ebebeb"></rect><rect x="274.77" y="292.24" width="21.22" height="47" style="fill:#ebebeb"></rect><path d="M364.34,452.16H275.08V406.85h89.26Zm-88.76-.5h88.26V407.35H275.58Z" style="fill:#ebebeb"></path><rect x="310.89" y="419.7" width="17.63" height="6.44" style="fill:#ebebeb"></rect><rect x="274.77" y="350.44" width="21.22" height="47" style="fill:#ebebeb"></rect><rect x="322.74" y="368.3" width="43.33" height="14.93" transform="translate(720.17 31.37) rotate(90)" style="fill:#a6a6a6"></rect><rect x="339.73" y="378.33" width="9.35" height="14.93" transform="translate(730.2 41.4) rotate(90)" style="fill:#dbdbdb"></rect><rect x="341.63" y="363.36" width="5.55" height="14.93" transform="translate(715.23 26.43) rotate(90)" style="fill:#dbdbdb"></rect><rect x="300.81" y="302.98" width="37.74" height="36.26" style="fill:#ebebeb"></rect><rect x="338.55" y="302.98" width="14.34" height="36.26" style="fill:#c7c7c7"></rect><polygon points="300.81 321.11 338.55 321.11 309.08 322.04 300.81 321.11" style="fill:#c7c7c7"></polygon><polygon points="338.55 334.86 300.81 334.86 330.28 335.8 338.55 334.86" style="fill:#c7c7c7"></polygon><polygon points="300.81 310.98 324.71 310.98 303.47 311.74 300.81 310.98" style="fill:#c7c7c7"></polygon><polygon points="338.55 329.52 314.64 329.52 335.89 330.29 338.55 329.52" style="fill:#c7c7c7"></polygon><polygon points="309.86 306.94 336.82 306.94 332.33 307.4 309.86 306.94" style="fill:#c7c7c7"></polygon><polygon points="304.48 325 331.44 325 326.95 325.46 304.48 325" style="fill:#c7c7c7"></polygon><polygon points="321.06 314.43 338.55 314.43 341.67 315.65 321.06 314.43" style="fill:#ebebeb"></polygon><polygon points="295.99 314.43 313.48 314.43 316.61 315.65 295.99 314.43" style="fill:#ebebeb"></polygon><polygon points="318.43 330.73 300.95 330.73 297.82 331.94 318.43 330.73" style="fill:#ebebeb"></polygon><polygon points="338.55 326.59 352.59 326.59 355.72 327.81 338.55 326.59" style="fill:#c7c7c7"></polygon><polygon points="343.45 321.11 354.34 321.11 352.89 320.12 343.45 321.11" style="fill:#c7c7c7"></polygon><rect x="351.87" y="351.21" width="12.22" height="46.22" style="fill:#ebebeb"></rect><path d="M358,360.33a2.55,2.55,0,1,1,2.54-2.55A2.55,2.55,0,0,1,358,360.33Z" style="fill:#fff"></path><path d="M358,359.24a1.46,1.46,0,1,1,1.45-1.46A1.46,1.46,0,0,1,358,359.24Z" style="fill:#a6a6a6"></path><rect x="352.35" y="378.42" width="11.25" height="12.22" transform="translate(742.5 26.55) rotate(90)" style="fill:#fff"></rect><rect x="290.71" y="387.89" width="46.22" height="9.61" style="fill:#c7c7c7"></rect><path d="M327.82,392.69a2.54,2.54,0,1,1,2.54,2.55A2.54,2.54,0,0,1,327.82,392.69Z" style="fill:#fff"></path><path d="M328.91,392.69a1.46,1.46,0,1,1,1.45,1.46A1.45,1.45,0,0,1,328.91,392.69Z" style="fill:#a6a6a6"></path><rect x="297.99" y="387.89" width="11.25" height="9.61" transform="translate(607.23 785.39) rotate(180)" style="fill:#fff"></rect><polygon points="181.85 361.5 184.38 376.67 201.51 469.19 204.27 469.19 191.81 376.67 189.97 361.5 181.85 361.5" style="fill:#dbdbdb"></polygon><polygon points="189.97 361.5 181.85 361.5 184.38 376.67 191.81 376.67 189.97 361.5" style="fill:#c7c7c7"></polygon><polygon points="128.04 469.19 130.81 469.19 147.94 376.67 150.47 361.5 142.34 361.5 140.5 376.67 128.04 469.19" style="fill:#dbdbdb"></polygon><polygon points="142.34 361.5 140.5 376.67 147.94 376.67 150.47 361.5 142.34 361.5" style="fill:#c7c7c7"></polygon><polygon points="76.66 469.19 79.42 469.19 96.55 376.67 99.08 361.5 90.95 361.5 89.11 376.67 76.66 469.19" style="fill:#dbdbdb"></polygon><polygon points="89.11 376.67 96.55 376.67 99.08 361.5 90.95 361.5 89.11 376.67" style="fill:#c7c7c7"></polygon><polygon points="81.03 368.63 206.58 368.63 206.58 358.45 159.58 355.4 143.79 264.29 85.82 264.29 81.03 368.63" style="fill:#dbdbdb"></polygon><polygon points="81.03 368.63 87.88 368.63 92.34 264.29 85.82 264.29 81.03 368.63" style="fill:#c7c7c7"></polygon></g><g id="freepik--Floor--inject-55"><path d="M455.46,469.19c-131.63.61-279.29.62-410.92,0,131.63-.62,279.29-.61,410.92,0Z" style="fill:#263238"></path></g><g id="freepik--Board--inject-55"><rect x="83.26" y="58.23" width="333.47" height="12.41" style="fill:#152259"></rect><rect x="83.26" y="58.23" width="333.47" height="12.41" style="opacity:0.30000000000000004"></rect><rect x="89.81" y="70.64" width="320.39" height="185.89" style="fill:#fff"></rect><path d="M410.19,70.64c.05.19.19,185.92.22,186.1s-320.54.11-320.6.16h-.38v-.37c0-.28.1-185.91.1-186.17l320.66.28Zm0,0c0-.12-321.5.69-320.11,0l.1,185.89-.37-.38c0,.11,321.28-.17,320.17.38l.21-185.89Z" style="fill:#263238"></path><polygon points="410.19 70.64 410.19 77.92 89.81 74.28 89.81 70.64 410.19 70.64" style="fill:#dbdbdb"></polygon><rect x="154.81" y="130.61" width="47.65" height="21.05" style="fill:#152259;opacity:0.9"></rect><rect x="202.46" y="130.61" width="47.65" height="21.05" style="fill:#152259;opacity:0.9"></rect><rect x="250.1" y="130.61" width="47.65" height="21.05" style="fill:#152259;opacity:0.9"></rect><rect x="297.75" y="130.61" width="47.65" height="21.05" style="fill:#152259;opacity:0.30000000000000004"></rect><rect x="154.81" y="151.65" width="47.65" height="21.05" style="fill:#152259;opacity:0.9"></rect><rect x="202.46" y="151.65" width="47.65" height="21.05" style="fill:#152259;opacity:0.6000000000000001"></rect><rect x="250.1" y="151.65" width="47.65" height="21.05" style="fill:#152259;opacity:0.6000000000000001"></rect><rect x="297.75" y="151.65" width="47.65" height="21.05" style="fill:#152259;opacity:0.30000000000000004"></rect><rect x="154.81" y="172.7" width="47.65" height="21.05" style="fill:#152259;opacity:0.6000000000000001"></rect><rect x="202.46" y="172.7" width="47.65" height="21.05" style="fill:#152259;opacity:0.6000000000000001"></rect><rect x="250.1" y="172.7" width="47.65" height="21.05" style="fill:#152259;opacity:0.30000000000000004"></rect><rect x="154.81" y="193.74" width="47.65" height="21.05" style="fill:#152259;opacity:0.6000000000000001"></rect><rect x="202.46" y="193.74" width="47.65" height="21.05" style="fill:#152259;opacity:0.30000000000000004"></rect><rect x="154.81" y="214.79" width="47.65" height="21.05" style="fill:#152259;opacity:0.30000000000000004"></rect><rect x="345.39" y="130.61" width="47.65" height="21.05" style="fill:#152259;opacity:0.30000000000000004"></rect><path d="M393,235.72c-.05-.12-286.32.45-286,0,.24-.26-.56-134.07.16-133.8,0,0,285.94.19,286,.17S393,235.65,393,235.72Zm0,0L393,102.17c.46.23-285.88.17-285.79.25.46-1.59.1,133.65.16,133.3-1.07-.44,286,.12,285.71,0Z" style="fill:#263238"></path><path d="M107,130.61c89.64-.29,196.45-.29,286.08,0-89.64.28-196.45.28-286.08,0Z" style="fill:#263238"></path><path d="M107,151.65c89.64-.29,196.45-.29,286.08,0-89.64.29-196.45.29-286.08,0Z" style="fill:#263238"></path><path d="M107,172.7c89.64-.29,196.45-.29,286.08,0-89.64.29-196.45.28-286.08,0Z" style="fill:#263238"></path><path d="M107,193.74c89.64-.29,196.45-.29,286.08,0-89.64.29-196.45.29-286.08,0Z" style="fill:#263238"></path><path d="M107,214.79c89.64-.29,196.45-.29,286.08,0-89.64.29-196.45.28-286.08,0Z" style="fill:#263238"></path><path d="M154.81,102.17c.31,42.78.31,90.77,0,133.55-.31-42.78-.31-90.77,0-133.55Z" style="fill:#263238"></path><path d="M202.46,102.17c.3,42.78.3,90.77,0,133.55-.31-42.78-.31-90.77,0-133.55Z" style="fill:#263238"></path><path d="M250.1,102.17c.31,42.78.31,90.77,0,133.55-.31-42.78-.3-90.77,0-133.55Z" style="fill:#263238"></path><path d="M297.75,102.17c.3,42.78.31,90.77,0,133.55-.31-42.78-.31-90.77,0-133.55Z" style="fill:#263238"></path><path d="M345.39,102.17c.31,42.78.31,90.77,0,133.55-.31-42.78-.3-90.77,0-133.55Z" style="fill:#263238"></path><path d="M393,102.17c.3,42.78.31,90.77,0,133.55-.31-42.78-.31-90.77,0-133.55Z" style="fill:#263238"></path><path d="M297.75,102.17c.3,42.78.31,90.77,0,133.55-.31-42.78-.31-90.77,0-133.55Z" style="fill:#263238"></path><path d="M174.91,115.08l-1.3,3.1a.08.08,0,0,1,0,0h0l0,0h0l0,0h0l0,0h0l0,0h-.13l0,0h0l0,0h0l0,0s0,0,0,0l0,0h0a.08.08,0,0,1,0,0l-.7-1.65-.69,1.65,0,0h0l0,0a0,0,0,0,1,0,0l0,0h0l0,0h0a.06.06,0,0,0-.05,0h-.13l0,0h0l-.05,0h0l0,0h0s0,0,0,0h0s0,0,0,0l-1.31-3.1a.28.28,0,0,1,.16-.37.28.28,0,0,1,.38.15l1,2.46.68-1.63a.29.29,0,0,1,.28-.18.31.31,0,0,1,.28.18l.68,1.63,1-2.46a.28.28,0,0,1,.38-.15A.27.27,0,0,1,174.91,115.08Z"></path><path d="M175.29,117a1.3,1.3,0,0,1,1.29-1.32,1.27,1.27,0,0,1,1.28,1.23v0a.07.07,0,0,1,0,.05.24.24,0,0,1-.27.21h-1.69a.82.82,0,0,0,.18.36.87.87,0,0,0,1.06.1.31.31,0,0,1,.4,0,.25.25,0,0,1,0,.35,1.33,1.33,0,0,1-.95.35A1.3,1.3,0,0,1,175.29,117Zm.57-.26h1.51a.89.89,0,0,0-.79-.56A.76.76,0,0,0,175.86,116.77Z"></path><path d="M178.52,117a1.31,1.31,0,0,1,1.3-1.32,1.27,1.27,0,0,1,1.28,1.23v0a.07.07,0,0,1,0,.05.25.25,0,0,1-.27.21h-1.69a.65.65,0,0,0,.18.36.81.81,0,0,0,.51.23.84.84,0,0,0,.55-.13.31.31,0,0,1,.4,0,.25.25,0,0,1,0,.35,1.35,1.35,0,0,1-1,.35A1.32,1.32,0,0,1,178.52,117Zm.58-.26h1.5a.86.86,0,0,0-.78-.56A.75.75,0,0,0,179.1,116.77Z"></path><path d="M181.94,118.07v-3.13a.3.3,0,1,1,.59,0v1.83l1.09-1.09a.3.3,0,0,1,.42.42l-.8.8.82,1a.3.3,0,0,1-.23.48.27.27,0,0,1-.22-.11l-.78-.94-.3.29v.47a.3.3,0,0,1-.59,0Z"></path><path d="M187.47,114.94v3.13a.3.3,0,0,1-.3.29.29.29,0,0,1-.29-.29v-2.61l-.21.12a.28.28,0,0,1-.15,0,.27.27,0,0,1-.25-.15.28.28,0,0,1,.1-.4l.65-.38h0l0,0h.15s0,0,0,0h0l0,0,0,0h0l0,0s0,0,0,0l0,0h0a0,0,0,0,1,0,0,0,0,0,0,1,0,0,0,0,0,0,0,0,0s0,0,0,0Z"></path><path d="M125.48,139v3.13a.3.3,0,0,1-.29.3.29.29,0,0,1-.3-.3v-2.61l-.21.12a.23.23,0,0,1-.15.05.31.31,0,0,1-.25-.15.28.28,0,0,1,.1-.4l.65-.39s0,0,0,0l0,0h.22l0,0h0l0,0,0,0v0l0,0h0v0s0,0,0,0,0,0,0,0v0a0,0,0,0,0,0,0Z"></path><path d="M126.16,140.59a2.26,2.26,0,0,1,.36-1.27,1.12,1.12,0,0,1,2,0,2.26,2.26,0,0,1,.36,1.27,2.28,2.28,0,0,1-.36,1.27,1.12,1.12,0,0,1-2,0A2.28,2.28,0,0,1,126.16,140.59Zm2.1,0a1.78,1.78,0,0,0-.26-1,.6.6,0,0,0-.49-.32.63.63,0,0,0-.51.32,1.91,1.91,0,0,0,0,1.89.65.65,0,0,0,.51.33.62.62,0,0,0,.49-.33A1.77,1.77,0,0,0,128.26,140.59Z"></path><path d="M129.93,140.59a2.34,2.34,0,0,1,.36-1.27,1.21,1.21,0,0,1,1-.59,1.19,1.19,0,0,1,1,.59,2.26,2.26,0,0,1,.36,1.27,2.28,2.28,0,0,1-.36,1.27,1.22,1.22,0,0,1-1,.59,1.23,1.23,0,0,1-1-.59A2.37,2.37,0,0,1,129.93,140.59Zm2.1,0a1.78,1.78,0,0,0-.26-1,.6.6,0,0,0-.49-.32.63.63,0,0,0-.5.32,1.85,1.85,0,0,0,0,1.89.65.65,0,0,0,.5.33.62.62,0,0,0,.49-.33A1.77,1.77,0,0,0,132,140.59Z"></path><path d="M133.65,139.65h0a.9.9,0,0,1,.88-.95.88.88,0,0,1,.87.94h0a.9.9,0,0,1-.88,1A.89.89,0,0,1,133.65,139.65Zm1.28,0h0c0-.3-.17-.54-.41-.54s-.4.24-.4.53h0c0,.3.17.54.41.54S134.93,139.93,134.93,139.65Zm-.67,2.48,2.44-3.33a.2.2,0,0,1,.18-.1.21.21,0,0,1,.21.21.33.33,0,0,1,0,.14l-2.44,3.33a.22.22,0,0,1-.19.09.2.2,0,0,1-.2-.2A.26.26,0,0,1,134.26,142.13Zm1.64-.58h0a.88.88,0,1,1,1.75,0h0a.9.9,0,0,1-.88,1A.89.89,0,0,1,135.9,141.55Zm1.28,0h0c0-.3-.17-.54-.41-.54s-.4.24-.4.53h0c0,.3.17.54.41.54S137.18,141.84,137.18,141.55Z"></path><path d="M125.48,160.16v3.13a.29.29,0,0,1-.29.29.29.29,0,0,1-.3-.29v-2.61l-.21.12a.28.28,0,0,1-.15,0,.29.29,0,0,1-.25-.15.27.27,0,0,1,.1-.39l.65-.39h0l0,0h.25l0,0h0l0,0v0l0,0h0s0,0,0,0a0,0,0,0,0,0,0v0s0,0,0,0Z"></path><path d="M126.16,161.72a2.23,2.23,0,0,1,.36-1.26,1.12,1.12,0,0,1,2,0,2.23,2.23,0,0,1,.36,1.26,2.26,2.26,0,0,1-.36,1.27,1.12,1.12,0,0,1-2,0A2.26,2.26,0,0,1,126.16,161.72Zm2.1,0a1.74,1.74,0,0,0-.26-.94.6.6,0,0,0-.49-.32.63.63,0,0,0-.51.32,1.74,1.74,0,0,0-.25.94,1.72,1.72,0,0,0,.25.94.65.65,0,0,0,.51.33.62.62,0,0,0,.49-.33A1.72,1.72,0,0,0,128.26,161.72Z"></path><path d="M129.93,161.72a2.31,2.31,0,0,1,.36-1.26,1.21,1.21,0,0,1,1-.59,1.19,1.19,0,0,1,1,.59,2.23,2.23,0,0,1,.36,1.26,2.26,2.26,0,0,1-.36,1.27,1.19,1.19,0,0,1-1,.59,1.21,1.21,0,0,1-1-.59A2.34,2.34,0,0,1,129.93,161.72Zm2.1,0a1.74,1.74,0,0,0-.26-.94.6.6,0,0,0-.49-.32.63.63,0,0,0-.5.32,1.74,1.74,0,0,0-.26.94,1.72,1.72,0,0,0,.26.94.65.65,0,0,0,.5.33.62.62,0,0,0,.49-.33A1.72,1.72,0,0,0,132,161.72Z"></path><path d="M133.65,160.78h0a.9.9,0,0,1,.88-1,.88.88,0,0,1,.87.94h0a.88.88,0,1,1-1.75,0Zm1.28,0h0c0-.29-.17-.54-.41-.54s-.4.25-.4.53h0c0,.31.17.54.41.54S134.93,161.07,134.93,160.78Zm-.67,2.48,2.44-3.33a.21.21,0,0,1,.18-.09.21.21,0,0,1,.21.21.25.25,0,0,1,0,.13l-2.44,3.33a.21.21,0,0,1-.19.1.2.2,0,0,1-.2-.21A.33.33,0,0,1,134.26,163.26Zm1.64-.57v0a.88.88,0,1,1,1.75,0h0a.9.9,0,0,1-.88,1A.88.88,0,0,1,135.9,162.69Zm1.28,0v0c0-.29-.17-.54-.41-.54s-.4.25-.4.53h0c0,.31.17.55.41.55S137.18,163,137.18,162.69Z"></path><path d="M123.34,182.29a1.29,1.29,0,0,1,2.57-.14h0c0,.11,0,.21,0,.31a3,3,0,0,1-.19,1.09,1.83,1.83,0,0,1-.68.9,1.49,1.49,0,0,1-.8.25.3.3,0,0,1-.31-.28.32.32,0,0,1,.29-.31,1,1,0,0,0,.5-.14,1.27,1.27,0,0,0,.34-.38l.06-.13a1.22,1.22,0,0,1-.51.1A1.28,1.28,0,0,1,123.34,182.29Zm.59,0a.7.7,0,1,0,1.4,0,.7.7,0,0,0-1.4,0Z"></path><path d="M126.76,182.29a1.29,1.29,0,0,1,2.57-.14h0c0,.11,0,.21,0,.31a3.2,3.2,0,0,1-.18,1.09,1.85,1.85,0,0,1-.69.9,1.49,1.49,0,0,1-.8.25.28.28,0,0,1-.3-.28.31.31,0,0,1,.28-.31,1,1,0,0,0,.5-.14,1,1,0,0,0,.34-.38l.07-.13a1.25,1.25,0,0,1-.51.1A1.28,1.28,0,0,1,126.76,182.29Zm.59,0a.7.7,0,1,0,1.39,0,.7.7,0,1,0-1.39,0Z"></path><path d="M130.59,184a.4.4,0,1,1-.39.39A.4.4,0,0,1,130.59,184Z"></path><path d="M131.34,182.29a1.29,1.29,0,0,1,2.57-.14h0c0,.11,0,.21,0,.31a3.2,3.2,0,0,1-.18,1.09,1.85,1.85,0,0,1-.69.9,1.48,1.48,0,0,1-.79.25.29.29,0,0,1-.31-.28.31.31,0,0,1,.29-.31.91.91,0,0,0,.49-.14,1,1,0,0,0,.34-.38.83.83,0,0,0,.07-.13,1.25,1.25,0,0,1-.51.1A1.28,1.28,0,0,1,131.34,182.29Zm.59,0a.7.7,0,0,0,.7.7.7.7,0,1,0-.7-.7Z"></path><path d="M134.69,181.92h0a.9.9,0,0,1,.88-.95.88.88,0,0,1,.87.94h0a.88.88,0,1,1-1.75,0Zm1.28,0h0c0-.3-.17-.54-.41-.54s-.4.24-.4.53h0c0,.3.17.54.41.54S136,182.21,136,181.92Zm-.67,2.48,2.44-3.33a.21.21,0,0,1,.18-.09.2.2,0,0,1,.21.2.22.22,0,0,1,0,.14l-2.43,3.33a.24.24,0,0,1-.19.1.21.21,0,0,1-.21-.21A.34.34,0,0,1,135.3,184.4Zm1.64-.58h0a.88.88,0,1,1,1.75,0h0a.9.9,0,0,1-.88.95A.89.89,0,0,1,136.94,183.82Zm1.28,0h0c0-.3-.17-.54-.41-.54s-.4.24-.4.53h0c0,.3.17.54.41.54S138.22,184.11,138.22,183.82Z"></path><path d="M125.48,202.43v3.13a.3.3,0,0,1-.29.3.29.29,0,0,1-.3-.3V203l-.21.12a.23.23,0,0,1-.15.05.31.31,0,0,1-.25-.15.28.28,0,0,1,.1-.4l.65-.39s0,0,0,0l0,0h.22l0,0h0l0,0,0,0v0l0,0h0s0,0,0,0v0s0,0,0,0v0a0,0,0,0,0,0,0Z"></path><path d="M126.16,204a2.26,2.26,0,0,1,.36-1.27,1.12,1.12,0,0,1,2,0,2.26,2.26,0,0,1,.36,1.27,2.28,2.28,0,0,1-.36,1.27,1.12,1.12,0,0,1-2,0A2.28,2.28,0,0,1,126.16,204Zm2.1,0a1.78,1.78,0,0,0-.26-.95.6.6,0,0,0-.49-.32.63.63,0,0,0-.51.32,1.91,1.91,0,0,0,0,1.89.65.65,0,0,0,.51.33.62.62,0,0,0,.49-.33A1.77,1.77,0,0,0,128.26,204Z"></path><path d="M129.93,204a2.34,2.34,0,0,1,.36-1.27,1.21,1.21,0,0,1,1-.59,1.19,1.19,0,0,1,1,.59,2.26,2.26,0,0,1,.36,1.27,2.28,2.28,0,0,1-.36,1.27,1.22,1.22,0,0,1-1,.59,1.23,1.23,0,0,1-1-.59A2.37,2.37,0,0,1,129.93,204Zm2.1,0a1.78,1.78,0,0,0-.26-.95.6.6,0,0,0-.49-.32.63.63,0,0,0-.5.32,1.85,1.85,0,0,0,0,1.89.65.65,0,0,0,.5.33.62.62,0,0,0,.49-.33A1.77,1.77,0,0,0,132,204Z"></path><path d="M133.65,203.06h0a.9.9,0,0,1,.88-1,.88.88,0,0,1,.87.94h0a.9.9,0,0,1-.88.95A.89.89,0,0,1,133.65,203.06Zm1.28,0h0c0-.3-.17-.54-.41-.54s-.4.24-.4.53h0c0,.3.17.54.41.54S134.93,203.34,134.93,203.06Zm-.67,2.48,2.44-3.33a.2.2,0,0,1,.18-.1.21.21,0,0,1,.21.21.33.33,0,0,1,0,.14l-2.44,3.33a.22.22,0,0,1-.19.09.2.2,0,0,1-.2-.2A.26.26,0,0,1,134.26,205.54Zm1.64-.58h0a.88.88,0,1,1,1.75,0h0a.9.9,0,0,1-.88,1A.89.89,0,0,1,135.9,205Zm1.28,0h0c0-.3-.17-.54-.41-.54s-.4.24-.4.53h0c0,.3.17.54.41.54S137.18,205.25,137.18,205Z"></path><path d="M125.63,224.56a1.29,1.29,0,0,1,2.57-.13h0c0,.1,0,.2,0,.3a3,3,0,0,1-.19,1.09,1.9,1.9,0,0,1-.68.91,1.49,1.49,0,0,1-.8.25.3.3,0,0,1,0-.59,1.09,1.09,0,0,0,.5-.15,1.11,1.11,0,0,0,.34-.37l.06-.14a1.19,1.19,0,0,1-.51.11A1.29,1.29,0,0,1,125.63,224.56Zm.59,0a.7.7,0,1,0,1.4,0,.7.7,0,0,0-1.4,0Z"></path><path d="M129.05,224.56a1.29,1.29,0,0,1,2.57-.13h0c0,.1,0,.2,0,.3a3.16,3.16,0,0,1-.18,1.09,1.92,1.92,0,0,1-.69.91,1.48,1.48,0,0,1-.79.25.3.3,0,0,1,0-.59,1,1,0,0,0,.84-.52s.05-.09.07-.14a1.26,1.26,0,0,1-.51.11A1.29,1.29,0,0,1,129.05,224.56Zm.59,0a.7.7,0,1,0,1.39,0,.7.7,0,0,0-1.39,0Z"></path><path d="M132.4,224.19h0a.9.9,0,0,1,.88-1,.88.88,0,0,1,.87.94h0a.88.88,0,1,1-1.75,0Zm1.28,0h0c0-.29-.17-.54-.41-.54s-.4.25-.4.53h0c0,.31.17.55.41.55S133.68,224.48,133.68,224.19Zm-.67,2.48,2.44-3.33a.2.2,0,0,1,.18-.09.21.21,0,0,1,.21.21.19.19,0,0,1-.05.13l-2.43,3.33a.23.23,0,0,1-.19.1.21.21,0,0,1-.21-.21A.24.24,0,0,1,133,226.67Zm1.64-.57v0a.88.88,0,1,1,1.75,0h0a.91.91,0,0,1-.88,1A.89.89,0,0,1,134.65,226.1Zm1.28,0v0c0-.29-.17-.54-.41-.54s-.4.25-.4.53h0c0,.31.17.55.41.55S135.93,226.38,135.93,226.1Z"></path><path d="M221.82,115.08l-1.3,3.1,0,0h0l0,0a0,0,0,0,1,0,0l0,0h0l0,0h0l0,0h-.13l0,0h0l0,0h0l0,0h0a.05.05,0,0,0,0,0h0a.08.08,0,0,1,0,0l-.7-1.65-.69,1.65a.17.17,0,0,0,0,0h0l0,0a0,0,0,0,1,0,0l0,0h0l0,0h0l0,0h-.14l0,0h0l-.05,0h0l0,0h0s0,0,0,0h0l0,0-1.3-3.1a.29.29,0,0,1,.53-.22l1,2.46.69-1.63a.29.29,0,0,1,.27-.18.29.29,0,0,1,.28.18l.68,1.63,1-2.46a.29.29,0,0,1,.54.22Z"></path><path d="M222.19,117a1.31,1.31,0,0,1,1.29-1.32,1.27,1.27,0,0,1,1.28,1.23V117a.26.26,0,0,1-.28.21h-1.69a.82.82,0,0,0,.18.36.86.86,0,0,0,.51.23.88.88,0,0,0,.56-.13.29.29,0,0,1,.39,0,.24.24,0,0,1,0,.35,1.33,1.33,0,0,1-1,.35A1.31,1.31,0,0,1,222.19,117Zm.58-.26h1.5a.87.87,0,0,0-.79-.56A.74.74,0,0,0,222.77,116.77Z"></path><path d="M225.42,117a1.31,1.31,0,0,1,1.3-1.32,1.27,1.27,0,0,1,1.28,1.23v0a.07.07,0,0,1,0,.05.24.24,0,0,1-.27.21H226a.72.72,0,0,0,.18.36.81.81,0,0,0,.51.23.84.84,0,0,0,.55-.13.31.31,0,0,1,.4,0,.25.25,0,0,1,0,.35,1.33,1.33,0,0,1-.95.35A1.32,1.32,0,0,1,225.42,117Zm.58-.26h1.51a.89.89,0,0,0-.79-.56A.76.76,0,0,0,226,116.77Z"></path><path d="M228.85,118.07v-3.13a.29.29,0,0,1,.29-.3.31.31,0,0,1,.3.3v1.83l1.08-1.09a.31.31,0,0,1,.42,0,.29.29,0,0,1,0,.42l-.8.8.82,1a.29.29,0,0,1,0,.41.28.28,0,0,1-.41,0l-.78-.94-.29.29v.47a.3.3,0,0,1-.3.29A.28.28,0,0,1,228.85,118.07Z"></path><path d="M235.67,118.07a.29.29,0,0,1-.29.29h-1.89a.29.29,0,0,1-.22-.09.3.3,0,0,1,0-.42l1.57-1.42a.68.68,0,0,0,.22-.51.67.67,0,0,0-.18-.46.64.64,0,0,0-.51-.23.7.7,0,0,0-.46.18l-.16.15a.29.29,0,1,1-.39-.44l.16-.15a1.26,1.26,0,0,1,.85-.33,1.31,1.31,0,0,1,1,.42,1.29,1.29,0,0,1,.33.86,1.26,1.26,0,0,1-.42.94l-1,.91h1.13A.29.29,0,0,1,235.67,118.07Z"></path><path d="M269.34,115.08l-1.3,3.1a.08.08,0,0,1,0,0h0l0,0h0l0,0h0l-.05,0h0l0,0h-.13l0,0h0l-.05,0h0l0,0s0,0,0,0l0,0h0a.08.08,0,0,1,0,0l-.7-1.65-.69,1.65,0,0h0l0,0a0,0,0,0,1,0,0l0,0h0l0,0h0a.06.06,0,0,0,0,0h-.13l0,0h0l-.05,0h0l0,0h0s0,0,0,0h0s0,0,0,0l-1.31-3.1a.28.28,0,0,1,.16-.37.28.28,0,0,1,.38.15l1,2.46.68-1.63a.29.29,0,0,1,.28-.18.31.31,0,0,1,.28.18l.68,1.63,1-2.46a.29.29,0,0,1,.39-.15A.27.27,0,0,1,269.34,115.08Z"></path><path d="M269.71,117a1.31,1.31,0,0,1,1.3-1.32,1.27,1.27,0,0,1,1.28,1.23V117a.26.26,0,0,1-.28.21h-1.69a.82.82,0,0,0,.18.36.87.87,0,0,0,1.06.1.31.31,0,0,1,.4,0,.25.25,0,0,1,0,.35,1.33,1.33,0,0,1-.95.35A1.32,1.32,0,0,1,269.71,117Zm.58-.26h1.51a.89.89,0,0,0-.79-.56A.76.76,0,0,0,270.29,116.77Z"></path><path d="M273,117a1.31,1.31,0,0,1,1.3-1.32,1.27,1.27,0,0,1,1.28,1.23v0a.07.07,0,0,1,0,.05.25.25,0,0,1-.27.21h-1.69a.65.65,0,0,0,.18.36.81.81,0,0,0,.51.23.84.84,0,0,0,.55-.13.31.31,0,0,1,.4,0,.25.25,0,0,1,0,.35,1.35,1.35,0,0,1-.95.35A1.32,1.32,0,0,1,273,117Zm.58-.26H275a.86.86,0,0,0-.78-.56A.75.75,0,0,0,273.53,116.77Z"></path><path d="M276.38,118.07v-3.13a.29.29,0,0,1,.29-.3.3.3,0,0,1,.29.3v1.83l1.09-1.09a.3.3,0,0,1,.42.42l-.8.8.82,1a.3.3,0,0,1-.23.48.27.27,0,0,1-.22-.11l-.78-.94-.3.29v.47a.29.29,0,0,1-.29.29A.28.28,0,0,1,276.38,118.07Z"></path><path d="M282.81,116.1a1.32,1.32,0,0,1,0,1.87,1.37,1.37,0,0,1-.94.39A1.32,1.32,0,0,1,281,118a.3.3,0,0,1,0-.43.31.31,0,0,1,.42,0,.71.71,0,0,0,1,0,.69.69,0,0,0,0-1,.67.67,0,0,0-.5-.21.29.29,0,0,1-.22-.1h0a.29.29,0,0,1,0-.43l.54-.55h-.86a.3.3,0,1,1,0-.6h1.56a.3.3,0,0,1,.31.3.33.33,0,0,1,0,.14l-.05.07-.67.69A1.37,1.37,0,0,1,282.81,116.1Z"></path><path d="M316.78,115.08l-1.3,3.1,0,0h0l0,0h0l0,0h0l0,0h0l-.05,0h-.12l0,0h0l-.05,0h0l0,0s0,0,0,0l0,0h0s0,0,0,0l-.69-1.65-.7,1.65a.08.08,0,0,1,0,0h0l0,0h0l0,0h0l-.05,0h0l0,0h-.13l0,0h0l-.05,0h0l0,0s0,0,0,0l0,0h0s0,0,0,0l-1.31-3.1a.28.28,0,0,1,.16-.37.28.28,0,0,1,.38.15l1,2.46.68-1.63a.29.29,0,0,1,.28-.18.29.29,0,0,1,.27.18l.69,1.63,1-2.46a.29.29,0,0,1,.53.22Z"></path><path d="M317.15,117a1.31,1.31,0,0,1,1.3-1.32,1.27,1.27,0,0,1,1.28,1.23v0a.07.07,0,0,1,0,.05.24.24,0,0,1-.27.21h-1.69a.65.65,0,0,0,.18.36.81.81,0,0,0,.51.23.84.84,0,0,0,.55-.13.31.31,0,0,1,.4,0,.25.25,0,0,1,0,.35,1.33,1.33,0,0,1-.95.35A1.32,1.32,0,0,1,317.15,117Zm.58-.26h1.5a.86.86,0,0,0-.78-.56A.75.75,0,0,0,317.73,116.77Z"></path><path d="M320.39,117a1.31,1.31,0,0,1,1.29-1.32,1.26,1.26,0,0,1,1.28,1.23V117a.26.26,0,0,1-.28.21H321a.82.82,0,0,0,.18.36.86.86,0,0,0,.51.23.87.87,0,0,0,.56-.13.29.29,0,0,1,.39,0,.24.24,0,0,1,0,.35,1.34,1.34,0,0,1-2.24-1Zm.58-.26h1.5a.87.87,0,0,0-.79-.56A.74.74,0,0,0,321,116.77Z"></path><path d="M323.81,118.07v-3.13a.3.3,0,1,1,.59,0v1.83l1.09-1.09a.3.3,0,0,1,.41,0,.29.29,0,0,1,0,.42l-.79.8.82,1a.29.29,0,0,1-.05.41.26.26,0,0,1-.18.07.3.3,0,0,1-.23-.11l-.78-.94-.29.29v.47a.3.3,0,0,1-.59,0Z"></path><path d="M331.07,117.37a.28.28,0,0,1-.29.29h-.06v.41a.28.28,0,0,1-.29.29.29.29,0,0,1-.29-.29v-.41h-1.67a.23.23,0,0,1-.18-.06.28.28,0,0,1-.05-.41l2-2.44a0,0,0,0,0,0,0l0,0,0,0h.05s0,0,0,0h0s0,0,0,0h.17s0,0,0,0h0s0,0,0,0l0,0s0,0,0,0l0,0v.07a0,0,0,0,1,0,0v2.19h.06A.29.29,0,0,1,331.07,117.37Zm-.93-1.6-1.06,1.31h1.06Z"></path><path d="M365.13,115.08l-1.3,3.1a.05.05,0,0,1,0,0h0l0,0h0l0,0h0l-.05,0h0l-.05,0h-.12l0,0h0l-.05,0h0l0,0s0,0,0,0l0,0h0l0,0-.69-1.65-.7,1.65a.08.08,0,0,1,0,0h0l0,0a0,0,0,0,1,0,0l0,0h0l0,0h0a.06.06,0,0,0-.05,0h-.13l0,0h0l0,0h0l0,0h0s0,0,0,0h0s0,0,0,0l-1.31-3.1a.29.29,0,0,1,.54-.22l1,2.46.68-1.63a.29.29,0,0,1,.28-.18.31.31,0,0,1,.28.18l.68,1.63,1-2.46a.28.28,0,0,1,.38-.15A.27.27,0,0,1,365.13,115.08Z"></path><path d="M365.5,117a1.31,1.31,0,0,1,1.3-1.32,1.27,1.27,0,0,1,1.28,1.23v0a.07.07,0,0,1,0,.05.24.24,0,0,1-.27.21h-1.69a.72.72,0,0,0,.18.36.81.81,0,0,0,.51.23.84.84,0,0,0,.55-.13.31.31,0,0,1,.4,0,.25.25,0,0,1,0,.35,1.33,1.33,0,0,1-.95.35A1.32,1.32,0,0,1,365.5,117Zm.58-.26h1.51a.89.89,0,0,0-.79-.56A.76.76,0,0,0,366.08,116.77Z"></path><path d="M368.74,117a1.31,1.31,0,0,1,1.3-1.32,1.27,1.27,0,0,1,1.28,1.23v0a.07.07,0,0,1,0,.05.26.26,0,0,1-.28.21h-1.68a.65.65,0,0,0,.18.36.81.81,0,0,0,.51.23.84.84,0,0,0,.55-.13.31.31,0,0,1,.4,0,.25.25,0,0,1,0,.35,1.35,1.35,0,0,1-.95.35A1.32,1.32,0,0,1,368.74,117Zm.58-.26h1.5a.86.86,0,0,0-.78-.56A.74.74,0,0,0,369.32,116.77Z"></path><path d="M372.16,118.07v-3.13a.3.3,0,1,1,.59,0v1.83l1.09-1.09a.3.3,0,0,1,.42.42l-.8.8.82,1a.29.29,0,0,1,0,.41.26.26,0,0,1-.18.07.27.27,0,0,1-.22-.11l-.79-.94-.29.29v.47a.3.3,0,0,1-.59,0Z"></path><path d="M378.54,116.11a1.32,1.32,0,0,1-.92,2.25h0a1.3,1.3,0,0,1-.92-.39.29.29,0,0,1,0-.42.3.3,0,0,1,.43,0,.68.68,0,0,0,.51.21.7.7,0,0,0,.5-.21.73.73,0,0,0,.21-.51.71.71,0,0,0-.21-.51.69.69,0,0,0-.5-.2.69.69,0,0,0-.51.2.3.3,0,0,1-.43,0l-.06-.06v0s0,0,0,0,0,0,0,0h0a.17.17,0,0,1,0-.1l.15-1.37a.32.32,0,0,1,.14-.21h0a.25.25,0,0,1,.14,0h1.57a.3.3,0,0,1,.3.31.29.29,0,0,1-.3.29h-1.31l-.06.53a1.49,1.49,0,0,1,.36,0A1.28,1.28,0,0,1,378.54,116.11Z"></path><path d="M127.55,111.36l-1.3,3.1,0,.05h0l0,0s0,0,0,0l0,0h0l0,0h-.23l0,0h0l0,0v0s0,0,0,0h0a.08.08,0,0,1,0-.05l-.7-1.65-.69,1.65a.17.17,0,0,0,0,.05h0l0,0s0,0,0,0l0,0h0l0,0h-.23l0,0h0l0,0,0,0,0,0h0l0-.05-1.3-3.1a.29.29,0,0,1,.53-.22l1,2.46.69-1.63a.29.29,0,0,1,.27-.18.3.3,0,0,1,.28.18l.68,1.63,1-2.46a.29.29,0,0,1,.54.22Z"></path><path d="M127.92,113.31a1.31,1.31,0,0,1,1.29-1.32,1.27,1.27,0,0,1,1.28,1.23v.07a.26.26,0,0,1-.28.21h-1.69a.73.73,0,0,0,.18.35.81.81,0,0,0,.51.24.88.88,0,0,0,.56-.13.29.29,0,0,1,.39,0,.24.24,0,0,1,0,.35,1.34,1.34,0,0,1-2.24-1Zm.58-.26H130a.87.87,0,0,0-.79-.56A.74.74,0,0,0,128.5,113.05Z"></path><path d="M131.15,113.31a1.31,1.31,0,0,1,1.3-1.32,1.27,1.27,0,0,1,1.28,1.23v0s0,0,0,.05a.24.24,0,0,1-.27.21h-1.69a.66.66,0,0,0,.18.35.77.77,0,0,0,.51.24A.84.84,0,0,0,133,114a.31.31,0,0,1,.4,0,.25.25,0,0,1,0,.35,1.34,1.34,0,0,1-2.25-1Zm.58-.26h1.51a.89.89,0,0,0-.79-.56A.76.76,0,0,0,131.73,113.05Z"></path><path d="M134.58,114.35v-3.13a.29.29,0,0,1,.29-.3.31.31,0,0,1,.3.3v1.83l1.08-1.09a.31.31,0,0,1,.42,0,.29.29,0,0,1,0,.42l-.8.79.82,1a.29.29,0,0,1,0,.41.28.28,0,0,1-.41,0l-.78-.94-.29.29v.47a.3.3,0,0,1-.3.29A.28.28,0,0,1,134.58,114.35Z"></path><path d="M137.43,113.88a.27.27,0,0,1,.39,0,.94.94,0,0,0,.59.23.76.76,0,0,0,.36-.1.22.22,0,0,0,.09-.16.07.07,0,0,0,0,0,.22.22,0,0,0-.07-.07,1.12,1.12,0,0,0-.43-.14h0a3.09,3.09,0,0,1-.46-.14.92.92,0,0,1-.37-.31.63.63,0,0,1-.09-.33.76.76,0,0,1,.31-.59,1.14,1.14,0,0,1,.66-.19,1.34,1.34,0,0,1,.79.29.29.29,0,0,1,.09.39.27.27,0,0,1-.39.07.91.91,0,0,0-.49-.19.58.58,0,0,0-.32.09.18.18,0,0,0-.09.13.06.06,0,0,0,0,0l.06,0a1,1,0,0,0,.39.13h0a2.09,2.09,0,0,1,.5.16.79.79,0,0,1,.37.31.64.64,0,0,1,.1.35.78.78,0,0,1-.33.62,1.22,1.22,0,0,1-.69.21,1.59,1.59,0,0,1-.95-.37A.28.28,0,0,1,137.43,113.88Z"></path><path d="M122.79,121.67a.28.28,0,0,1,.29-.29v-2.72a.29.29,0,0,1,.29-.3.28.28,0,0,1,.28.3v2.72a.57.57,0,0,1-.57.58A.28.28,0,0,1,122.79,121.67Zm.3-4v-.1a.29.29,0,1,1,.58,0v.1a.29.29,0,1,1-.58,0Z"></path><path d="M124.88,120.63a1.31,1.31,0,0,1-.37-.93,1.36,1.36,0,0,1,.37-.93,1.23,1.23,0,0,1,.91-.41,1.19,1.19,0,0,1,.89.41,1.32,1.32,0,0,1,.37.93,1.27,1.27,0,0,1-.37.93,1.18,1.18,0,0,1-.89.4A1.22,1.22,0,0,1,124.88,120.63Zm.21-.93a.88.88,0,0,0,.19.56.71.71,0,0,0,.51.2.68.68,0,0,0,.49-.2.85.85,0,0,0,0-1.12.77.77,0,0,0-.49-.2.8.8,0,0,0-.51.2A.88.88,0,0,0,125.09,119.7Z"></path><path d="M128.53,117.7a.28.28,0,0,1-.28.29.29.29,0,0,1-.29-.29v-.11a.29.29,0,0,1,.29-.29.28.28,0,0,1,.28.29Zm0,1v2.07a.28.28,0,0,1-.28.29.29.29,0,0,1-.29-.29v-2.07a.28.28,0,0,1,.29-.29A.28.28,0,0,1,128.53,118.66Z"></path><path d="M131.66,119.47v1.27a.28.28,0,0,1-.27.28.3.3,0,0,1-.29-.28v-1.27a.54.54,0,1,0-1.08,0v1.27a.11.11,0,0,1,0,.05.29.29,0,0,1-.28.23.28.28,0,0,1-.28-.28v-2.1a.28.28,0,0,1,.28-.28.3.3,0,0,1,.26.17,1.08,1.08,0,0,1,.56-.17A1.11,1.11,0,0,1,131.66,119.47Z"></path><path d="M132.52,119.69a1.32,1.32,0,0,1,1.3-1.33,1.28,1.28,0,0,1,1.28,1.23v0s0,0,0,0a.26.26,0,0,1-.28.21h-1.68a.62.62,0,0,0,.18.35.77.77,0,0,0,.51.24.84.84,0,0,0,.55-.13.31.31,0,0,1,.4,0,.25.25,0,0,1,0,.35,1.35,1.35,0,0,1-1,.35A1.33,1.33,0,0,1,132.52,119.69Zm.58-.26h1.5a.85.85,0,0,0-.78-.56A.73.73,0,0,0,133.1,119.43Z"></path><path d="M138.35,120.73a.29.29,0,0,1-.57.06,1.28,1.28,0,0,1-.72.23,1.33,1.33,0,0,1,0-2.66,1.25,1.25,0,0,1,.71.23v-1a.29.29,0,0,1,.58,0v2.1h0Zm-1.29-1.79a.68.68,0,0,0-.5.22.75.75,0,0,0-.21.54.74.74,0,0,0,.21.52.68.68,0,0,0,.5.22.7.7,0,0,0,.5-.22.74.74,0,0,0,.21-.52.75.75,0,0,0-.21-.54A.7.7,0,0,0,137.06,118.94Z"></path><path d="M168,141.13q10.68-.51,21.37,0-10.69.51-21.37,0Z" style="fill:#263238"></path><path d="M215.6,141.13q10.68-.51,21.36,0-10.68.51-21.36,0Z" style="fill:#263238"></path><path d="M263.24,141.13q10.68-.51,21.37,0-10.68.51-21.37,0Z" style="fill:#263238"></path><path d="M310.89,141.13q10.68-.51,21.36,0-10.68.51-21.36,0Z" style="fill:#263238"></path><path d="M168,162.17q10.68-.49,21.37,0-10.69.51-21.37,0Z" style="fill:#263238"></path><path d="M215.6,162.17q10.68-.49,21.36,0-10.68.51-21.36,0Z" style="fill:#263238"></path><path d="M263.24,162.17q10.68-.49,21.37,0-10.68.51-21.37,0Z" style="fill:#263238"></path><path d="M310.89,162.17q10.68-.49,21.36,0-10.68.51-21.36,0Z" style="fill:#263238"></path><path d="M168,183.22q10.68-.51,21.37,0-10.69.51-21.37,0Z" style="fill:#263238"></path><path d="M215.6,183.22q10.68-.51,21.36,0-10.68.51-21.36,0Z" style="fill:#263238"></path><path d="M263.24,183.22q10.68-.51,21.37,0-10.68.51-21.37,0Z" style="fill:#263238"></path><path d="M168,204.26q10.68-.49,21.37,0-10.69.51-21.37,0Z" style="fill:#263238"></path><path d="M215.6,204.26q10.68-.49,21.36,0-10.68.51-21.36,0Z" style="fill:#263238"></path><path d="M263.24,204.26q10.68-.49,21.37,0-10.68.51-21.37,0Z" style="fill:#263238"></path><path d="M168,225.31q10.68-.51,21.37,0-10.69.51-21.37,0Z" style="fill:#263238"></path><path d="M358.53,141.13q10.68-.51,21.37,0-10.68.51-21.37,0Z" style="fill:#263238"></path></g><g id="freepik--Plant--inject-55"><path d="M409.29,295.68s24.94-3.49,19.11-33.6C428.4,262.08,400.53,268.34,409.29,295.68Z" style="fill:#152259"></path><path d="M409.29,295.68s24.94-3.49,19.11-33.6C428.4,262.08,400.53,268.34,409.29,295.68Z" style="opacity:0.1"></path><path d="M410.55,289.4a47.53,47.53,0,0,1,1.69-4.49c0-.19.05-.38.07-.57,0-.41.07-.83.1-1.24q.1-1.35.18-2.7c.11-1.8.22-3.6.25-5.4,0-.1.15-.09.15,0,0,1.81.05,3.61,0,5.41q-.06,1.35-.15,2.7c0,.2,0,.4,0,.6a53.47,53.47,0,0,1,5-8.56q1.28-1.78,2.72-3.45c1-1.14,2.05-2.22,3.06-3.35.06-.07.17,0,.1.11a44.88,44.88,0,0,0-4.81,6.39c-.75,1.15-1.47,2.32-2.15,3.52l.23-.09.89-.36,2-.77,4-1.49c.08,0,.13.11.05.14-1.32.53-2.64,1.09-3.95,1.65l-1.93.83-1,.4a3.27,3.27,0,0,1-.66.24c-.51.9-1,1.81-1.46,2.73a64.85,64.85,0,0,0-3.05,7.19l-.18.51a15.85,15.85,0,0,1,2-1c.86-.4,1.73-.78,2.58-1.18,1.75-.8,3.49-1.62,5.17-2.56a.07.07,0,1,1,.07.13c-1.71.94-3.39,1.93-5.11,2.86-.86.47-1.72.92-2.6,1.35a8.32,8.32,0,0,1-2.34.94,29.54,29.54,0,0,0-1.64,7.07c-.27,3.41-.24,6.84-.32,10.25a0,0,0,0,1-.09,0c-.25-3.1-.39-6.22-.41-9.33A27.08,27.08,0,0,1,410.55,289.4Z" style="fill:#263238"></path><path d="M414.39,271.69a29.48,29.48,0,0,1,.24,5.31,0,0,0,1,1-.07,0c-.1-1.76-.12-3.52-.32-5.27C414.23,271.63,414.38,271.59,414.39,271.69Z" style="fill:#263238"></path><path d="M421.52,273.2a19.51,19.51,0,0,0,3.21-1.58c.08-.05.15.08.07.14a12.35,12.35,0,0,1-3.24,1.54C421.5,273.32,421.46,273.22,421.52,273.2Z" style="fill:#263238"></path><path d="M408.49,343.48c0-2.75.07-5.51.1-8.26.06-9.16.13-18.31.3-27.46q.19-10.9.5-21.8a.11.11,0,0,1,.07-.09c0-2,0-4,0-6,0-.05.06-.07.12-.07s.12,0,.12.08l0,6a.11.11,0,0,1,.06.09c.37,12.93.69,25.86.77,38.8,0,2.63,0,5.26,0,7.89q.12,12.64.09,25.3c0,1.34,0,2.68,0,4,0,7.71-.08,15.43-.08,23.14,0,.42-.46.62-1,.64s-1.16-.2-1.16-.67c0-8.51-.06-17-.05-25.53C408.47,354.21,408.45,348.85,408.49,343.48Z" style="fill:#263238"></path><path d="M418.91,335.11s12-8.89,23.38-2.88,13.17,29.16,13.17,29.16-16.72,2.39-27.25-7.63C418.06,344.1,418.91,335.11,418.91,335.11Z" style="fill:#152259"></path><path d="M415.63,335.66a14.41,14.41,0,0,1,6.95-.91,10.44,10.44,0,0,1,1.48-.14l1.69-.13,3.49-.25c2.37-.17,4.74-.32,7.11-.55.08,0,.1.13,0,.15-2.34.29-4.66.63-7,.86-1.2.13-2.41.25-3.62.34l-.88.08c.36.08.72.17,1.07.27a28.7,28.7,0,0,1,5.44,2.2c.94.17,1.88.44,2.81.66,1.48.35,3,.73,4.43,1.12,2.92.76,5.8,1.62,8.69,2.46a.07.07,0,1,1,0,.14c-2.89-.7-5.8-1.35-8.69-2l-4.22-1-1.1-.26a35.26,35.26,0,0,1,8.53,7.42,46.38,46.38,0,0,1,5.92,9.34c0,.09-.08.17-.13.08a45.86,45.86,0,0,0-7.17-9.41l.16.48c.22.71.44,1.41.67,2.12.44,1.41.89,2.82,1.31,4.24,0,.1-.11.13-.15,0-.5-1.37-1-2.75-1.47-4.12-.23-.68-.47-1.35-.71-2l-.36-1.05c0-.11-.08-.22-.11-.32a41.71,41.71,0,0,0-4.26-3.63,32.44,32.44,0,0,0-6.37-3.65c0,.21.08.42.13.61.11.55.24,1.1.35,1.64.23,1.14.45,2.28.68,3.42.45,2.32.73,4.67,1.16,7a.08.08,0,0,1-.15,0c-.53-2.34-1.23-4.63-1.75-7-.26-1.17-.52-2.34-.76-3.52-.12-.55-.23-1.09-.34-1.64-.06-.31-.13-.61-.17-.92-.21-.09-.43-.19-.65-.27-3.15-1.17-6.62-2-10-1.37A9.81,9.81,0,0,0,410.4,342c-.11.26-.52.1-.46-.17C410.59,338.91,413,336.77,415.63,335.66Z" style="fill:#263238"></path><path d="M434,345.55c.34,1.52.68,3,1,4.56a33.57,33.57,0,0,1,.84,4.43c0,.06-.08.06-.1,0a35.72,35.72,0,0,1-1-4.47c-.29-1.5-.59-3-.88-4.5A.08.08,0,0,1,434,345.55Z" style="fill:#263238"></path><path d="M445.6,349.41c1.53.77,3,1.66,4.61,2.29.1,0,0,.19-.07.14-1.53-.77-3.12-1.45-4.57-2.37C445.53,349.44,445.56,349.39,445.6,349.41Z" style="fill:#263238"></path><path d="M416.21,318.79s14.66.93,21.48-8.74S443,286.58,443,286.58s-15.4,1.87-21.52,8.81S416.21,318.79,416.21,318.79Z" style="fill:#152259"></path><path d="M409.33,333.25c.5-1.57,1.13-3.11,1.73-4.65s1.17-3,1.82-4.4a93.4,93.4,0,0,1,4.39-8.64c1-1.78,2.15-3.51,3.29-5.21,0-.26.07-.52.11-.78l.21-1.36c.14-.93.31-1.86.46-2.78.34-2,.76-4,1.08-6.07,0-.09.17-.09.15,0-.3,2-.5,4-.78,6-.13,1-.26,2-.41,2.95-.06.36-.11.71-.17,1.07a104.62,104.62,0,0,1,7.25-9.41l1.07-1.2c0-.11.1-.22.14-.34s.22-.55.32-.83c.21-.59.43-1.17.63-1.75.42-1.15.79-2.31,1.1-3.49,0-.09.17-.05.14,0q-.44,1.81-1,3.6c-.17.57-.36,1.14-.56,1.7,0,.1-.07.19-.1.28,1.87-2,3.83-4,5.8-5.95.07-.07.17,0,.11.11a103.89,103.89,0,0,0-10.39,12.72,10,10,0,0,1,1.08-.27c1.13-.22,2.27-.38,3.41-.52,2.39-.31,4.77-.61,7.15-1,.09,0,.13.13,0,.15-2.28.45-4.53,1-6.78,1.48-1.07.24-2.14.45-3.21.66a20.44,20.44,0,0,0-2.57.74c-.24.34-.49.67-.72,1-1.08,1.57-2.11,3.17-3.12,4.78l1.5-.3c1.13-.22,2.27-.42,3.4-.61,2.24-.37,4.48-.75,6.69-1.26.09,0,.13.13,0,.15-2.25.53-4.47,1.14-6.69,1.73-1.08.29-2.16.55-3.24.79l-1.63.35a4.65,4.65,0,0,1-.66.12q-3.22,5.21-6,10.65-1.21,2.4-2.36,4.83c-.79,1.67-1.46,3.37-2.18,5.05C409.74,333.76,409.21,333.62,409.33,333.25Z" style="fill:#263238"></path><path d="M424.33,299.56c.28-1.4.58-2.8.89-4.19,0-.1.16-.05.14,0-.27,1.38-.54,2.76-.79,4.13a37.85,37.85,0,0,1-.83,4.11s-.05,0,0,0A28.05,28.05,0,0,1,424.33,299.56Z" style="fill:#263238"></path><path d="M432.89,299.15c.68-.34,1.4-.61,2.1-.89l1.12-.43.56-.23a2.65,2.65,0,0,0,.62-.27c.11-.08.18.11.07.13a2.37,2.37,0,0,0-.62.25l-.56.25-1.07.48a21.28,21.28,0,0,1-2.17.86A.08.08,0,0,1,432.89,299.15Z" style="fill:#263238"></path><path d="M401.2,307.26s-8.88-16.58-22.37-19.14-21.77,11.32-21.77,11.32,9.85,12.57,22.24,14.77S401.2,307.26,401.2,307.26Z" style="fill:#152259"></path><path d="M369.78,295.54a36.5,36.5,0,0,1,10.59.13l-.61-.32-3-1.55c-2.07-1.07-4.17-2.22-6.34-3.09a.08.08,0,1,1,.06-.14c2.11,1,4.3,1.81,6.42,2.78,1.06.49,2.1,1,3.13,1.55.67.35,1.41.68,2.06,1.1a37.28,37.28,0,0,1,8.58,2.85L389,297c-1.25-1.38-2.49-2.83-3.87-4.08-.08-.07,0-.17.11-.11,1.41,1.29,2.9,2.47,4.27,3.81.67.64,1.3,1.32,1.92,2,.31.34.62.7.91,1.06a35.58,35.58,0,0,1,18.1,24.44c0,.1-.11.15-.14.05a40.61,40.61,0,0,0-9.93-16.79,39,39,0,0,0-18.08-10.47,39.77,39.77,0,0,0-12.48-1.13A.14.14,0,0,1,369.78,295.54Z" style="fill:#263238"></path><path d="M357.06,299.44s9.85,12.58,22.24,14.77c9.45,1.68,17.22-3.25,20.38-5.68l.68-1.12s-6.39-5.39-18.48-8.5S357.06,299.44,357.06,299.44Z" style="opacity:0.1"></path><path d="M377.62,289.64a34.4,34.4,0,0,1,3,2,19,19,0,0,1,2.6,2.39c.07.07,0,.17-.11.11-.9-.78-1.8-1.56-2.73-2.3a31.44,31.44,0,0,0-2.84-2.05A.07.07,0,1,1,377.62,289.64Z" style="fill:#263238"></path><path d="M370.21,292.44c.5.21,1,.39,1.51.6l1.5.62c.11,0,.06.22-.05.18l-1.51-.61c-.5-.21-1-.44-1.49-.64C370.08,292.55,370.12,292.4,370.21,292.44Z" style="fill:#263238"></path><path d="M403,328.12s-2.37,16.44-14.74,22.19-27.43,0-27.43,0S366.73,314.74,403,328.12Z" style="fill:#152259"></path><path d="M369.32,339.62c1.14-.13,2.27-.33,3.4-.53l1.66-.32.87-.17c.33-.31.66-.63,1-.93a50.21,50.21,0,0,1,7.56-5.48,43,43,0,0,1,4.53-2.33h-.23l-4.07.18c-2.71.12-5.43.18-8.14.36-.1,0-.09-.15,0-.15,2.72-.19,5.43-.49,8.14-.72l4-.35,2-.18.52-.05c.7-.27,1.41-.52,2.13-.74a19.34,19.34,0,0,1,10.47-.58c3.11.8,6.22,2.84,7,6.12,0,.11-.14.19-.19.07-1.16-2.74-4.2-4.12-6.95-4.69a16.45,16.45,0,0,0-5.6-.1,12.86,12.86,0,0,1-.62,2.48c-.34,1.16-.68,2.32-1,3.47-.7,2.31-1.48,4.6-2.16,6.91a.07.07,0,1,1-.14,0c.57-2.31,1.05-4.64,1.61-6.95.27-1.14.56-2.27.84-3.4a19.31,19.31,0,0,1,.62-2.34,29.35,29.35,0,0,0-3.21.76,45.85,45.85,0,0,0-5.6,2.05c-.18,1.17-.44,2.33-.71,3.49-.34,1.45-.72,2.89-1.18,4.31,0,.09-.15.05-.13,0a2.56,2.56,0,0,1,.05-.27h0c.28-1.34.58-2.68.86-4,.23-1.09.44-2.18.67-3.26-1.53.69-3,1.45-4.5,2.29,0,.33-.11.67-.16,1-.09.56-.19,1.12-.3,1.69-.23,1.26-.48,2.53-.79,3.78a58.72,58.72,0,0,1-2.12,7.15.09.09,0,0,1,0,.1l-.07.08c-.06.06-.14,0-.13-.08.57-2.43,1.23-4.85,1.76-7.3.27-1.22.54-2.44.78-3.66.13-.62.24-1.23.35-1.84,0-.18.06-.36.09-.55a49.05,49.05,0,0,0-4.81,3.21,51.11,51.11,0,0,0-7.37,6.73c-.09.09-.27-.05-.19-.15.95-1.24,1.88-2.45,2.95-3.6.62-.66,1.27-1.31,1.93-1.94l-.21,0c-.58.1-1.16.18-1.74.26-1.14.15-2.29.26-3.44.4C369.26,339.78,369.22,339.63,369.32,339.62Z" style="fill:#263238"></path><path d="M378,345.19h0a3.07,3.07,0,0,1,.07-.42c0-.19.12-.36.15-.54h0c.25-1.1.47-2.2.67-3.32,0-.07.13,0,.13,0a13.26,13.26,0,0,1-.94,4.29,0,0,0,0,1-.09,0Z" style="fill:#263238"></path><path d="M388.35,344.93a.08.08,0,0,1,.08-.07c.34-1.46.68-2.91,1-4.38.16-.77.32-1.54.47-2.31.07-.42.15-.84.23-1.25a3.5,3.5,0,0,1,.26-1.07.08.08,0,0,1,.14,0,7.29,7.29,0,0,1-.31,2.21q-.22,1.2-.48,2.4c-.36,1.62-.77,3.24-1.23,4.83,0,.09-.17.07-.16,0S388.35,345.05,388.35,344.93Z" style="fill:#263238"></path><path d="M370.44,334.88c2.26-.31,4.52-.64,6.78-.91.1,0,.14.13,0,.15-2.26.33-4.52.61-6.78.91C370.38,335,370.35,334.89,370.44,334.88Z" style="fill:#263238"></path><path d="M409.3,289.56s7.57-33.2-28.09-46.63C381.21,242.93,371.33,286.62,409.3,289.56Z" style="fill:#152259"></path><path d="M401.61,270.73c-.14-.08-.27-.17-.39-.23l-2-1.13-4.14-2.31c-2.72-1.52-5.41-3.11-8.15-4.6-.08,0,0-.17.08-.13,2.75,1.5,5.54,2.89,8.3,4.35l4.09,2.16,1.67.89c-1.19-2.26-2.46-4.47-3.86-6.6-1.86-2.85-3.9-5.55-6-8.2a.12.12,0,0,1,.18-.17,56.47,56.47,0,0,1,8.24,10.11c0-.12,0-.24,0-.35,0-.82-.06-1.65-.07-2.48,0-1.62.05-3.24,0-4.86,0-.09.15-.09.16,0,.06,1.59.25,3.18.35,4.77,0,.8.07,1.6.1,2.39,0,.43.05.92,0,1.39.73,1.17,1.44,2.36,2.1,3.56a62.07,62.07,0,0,1,3.19,6.68c0-.82.09-1.65.13-2.47.11-1.82.33-3.63.41-5.45,0-.1.15-.09.15,0,0,1.82.05,3.64,0,5.46,0,.91-.05,1.82-.11,2.72,0,.34,0,.68-.07,1a60.62,60.62,0,0,1,2.7,9.12,99.17,99.17,0,0,1,1.33,10s0,0,0,0a54.9,54.9,0,0,0-1.89-8.94c-.45-1.56-.91-3.12-1.41-4.67-1.49-.7-2.91-1.57-4.34-2.36s-3-1.63-4.48-2.45c-3-1.63-5.94-3.29-9-4.74-.09,0,0-.17.08-.13,3.11,1.41,6.24,2.75,9.29,4.29,1.52.76,3,1.57,4.5,2.41,1.24.7,2.51,1.4,3.69,2.2-.34-1-.7-2.06-1.1-3.08A88.3,88.3,0,0,0,401.61,270.73Z" style="fill:#263238"></path><path d="M404.61,263.14c0-.09.16-.09.15,0-.12,1.89-.19,3.78-.39,5.67a.09.09,0,0,1-.17,0C404.27,266.92,404.47,265,404.61,263.14Z" style="fill:#263238"></path><path d="M387.51,269.48c2.24.9,4.49,1.75,6.71,2.68.06,0,0,.13,0,.1-2.26-.84-4.48-1.76-6.72-2.63C387.38,269.59,387.42,269.44,387.51,269.48Z" style="fill:#263238"></path><path d="M384.13,254.17a59.43,59.43,0,0,1,6.34,3.4c.1.07,0,.23-.1.17-2.07-1.21-4.18-2.37-6.32-3.44C384,254.26,384,254.13,384.13,254.17Z" style="fill:#263238"></path><rect x="384.66" y="361.33" width="51.43" height="54.21" transform="translate(820.76 776.88) rotate(180)" style="fill:#455a64"></rect><rect x="437" y="380.51" width="2.63" height="88.67" style="fill:#263238"></rect><rect x="381.4" y="380.51" width="2.63" height="88.67" style="fill:#263238"></rect><rect x="407.8" y="380.51" width="2.63" height="88.67" style="fill:#263238"></rect><rect x="382.72" y="412.07" width="55.6" height="7.51" transform="translate(821.04 831.65) rotate(180)" style="fill:#263238"></rect></g><g id="freepik--Character--inject-55"><path d="M177.76,470.72c-2.25.75-66.43.56-68.88-1-.92-.58-1.44-9.94-1.75-21.25Q107,444.8,107,441c0-3-.08-6.11-.1-9.1-.08-13.4.1-25.21.1-25.21h41.79l0,25.21V441l-.22,7.53s24.55,11.07,27,13.06S180,470,177.76,470.72Z" style="fill:#eb9481"></path><path d="M177.76,470.72c-2.24.75-66.44.56-68.87-1-.87-.54-1.38-8.69-1.69-18.94,5.15,2.38,49.53,11.49,60,11.61,10,.1-5.93-8-8.49-9.25,7.07,3.28,15.45,7.27,16.85,8.39C178,463.53,180,470,177.76,470.72Z" style="fill:#263238"></path><path d="M84.41,215s21.9,110,23.44,118.12c.36,1.85-4.23,108.54-4.23,108.54h47.92s0-94.24-1.94-110.46S122.84,215,122.84,215Z" style="fill:#263238"></path><path d="M84.41,215S95.06,268.53,102,303.66L122.84,215Z" style="fill:#37474f"></path><path d="M143.57,429.88c-.68-26.63-1.25-70.18-2-96.71-2.73-15.28-7.32-37.39-10.24-52.72l-4.05-21.12c5.23,23.93,10.83,49.59,15.26,73.75.83,32.27.9,64.52,1,96.8Z" style="fill:#455a64"></path><path d="M122.61,471.18c-2.26.72-66.44-.08-68.87-1.66-.92-.59-1.35-9.95-1.54-21.27-.05-2.44,1.59-41.61,1.59-41.61l40.44.18-.65,41.83S118,460,120.49,462,124.85,470.46,122.61,471.18Z" style="fill:#eb9481"></path><path d="M122.6,471.18c-2.25.73-66.43-.08-68.86-1.66-.82-.53-1.24-8-1.47-17.56,9.3,2.8,49,10,58.75,9.88,8.88-.09-2.71-6.16-7.3-8.41,7,3.34,15.37,7.41,16.76,8.55C123,464,124.86,470.46,122.6,471.18Z" style="fill:#263238"></path><path d="M96.93,442.51H48.13s9.24-72.08,10-84.19c.37-6.18,4.31-73.26,7.89-103A56.84,56.84,0,0,1,71.92,215h51s-.81,22-6.66,36.67A89.65,89.65,0,0,0,103,257.55s-2.57,91.63-3.39,107.36C98.53,384.92,96.93,442.51,96.93,442.51Z" style="fill:#263238"></path><path d="M90,436.89c1-29.28,3.71-69.69,4.76-99.1.54-23.86,1.32-53.25,2.14-77.14-.21,23.93-.71,53.29-1.19,77.18-1,29.45-3.87,69.78-5.71,99.06Z" style="fill:#455a64"></path><path d="M117.31,124.91c-6.32,7.74-1.5,14.32-4.28,16.83-7.25,6.54-2.24,8.88-4.15,11.27-1.57,2-7.79,3.54-5.57,10.57l28.51-.05c.85-4.69-3.86-7.2-4.16-10.51s3.63-6.61-2.66-13.67C120.92,134.77,120.34,121.19,117.31,124.91Z" style="fill:#263238"></path><path d="M116.49,120.11s3.81,1.25,4.83,3.83c1.66,4.21.7,11.21.7,11.21Z" style="fill:#263238"></path><path d="M100.82,164.43c1.8,12.61,18.38,45.2,27.24,49.55,6.41,3.14,36.8-5.24,45.59-9,8.48-3.62-5.91-29.27-11-27.49-7.24,2.51-24.45,11.27-27.17,10.64-1.9-.45-10.69-10.22-23.59-27.09C104.7,151.72,99.75,156.91,100.82,164.43Z" style="fill:#eb9481"></path><path d="M174.31,171.19c4.53-.52,9.67-1.47,14.3-.32s7.07,8.18,6.67,9.94-4.68,12.31-9.33,11.24.1-8.84.14-9.85.16-2.27-.74-2.39-17.92,3.64-17.92,3.64Z" style="fill:#eb9481"></path><path d="M174.46,171.89c.26.07,13.85-2,18.47-.82s7.08,8.18,6.67,9.93-4.68,12.32-9.32,11.25.09-8.85.14-9.85.15-2.28-.74-2.39-17.92,3.64-17.92,3.64Z" style="fill:#eb9481"></path><path d="M188.83,191.3a5.8,5.8,0,0,1-.14-2.93,10.05,10.05,0,0,1,.85-2.93A15.8,15.8,0,0,0,190.7,183a5.25,5.25,0,0,0-.09-2.61c-.2-.73-.94-.67-1.57-.6a26,26,0,0,0-2.79.56c-1,.24-2,.5-3,.75a24.49,24.49,0,0,0-3,.86c-.07,0-.06.15,0,.14a23.45,23.45,0,0,0,2.6-.52q1.47-.32,2.94-.6c.91-.18,1.82-.41,2.74-.57a2.79,2.79,0,0,1,1.31-.09c.34.17.31,1.08.33,1.38a4.53,4.53,0,0,1-.74,2.47,13.58,13.58,0,0,0-1.07,2.44,6.89,6.89,0,0,0-.36,2.47,9.94,9.94,0,0,0,.64,2.25C188.71,191.46,188.88,191.39,188.83,191.3Z" style="fill:#263238"></path><path d="M156.91,180.7s15.58-8.77,18.8-10.49c6.46-3.44,31.24-7.48,34.47-7.08s2.89,7.12-14,10.31c-8.92,1.68-11.43,6-11.86,8.59s.91,8,5.26,8.85,8.62-4.79,12.75-4.58-.16,6.9-3.94,10.46a27.18,27.18,0,0,1-13.73,6.4c-4.06.55-16.79,2.87-16.79,2.87Z" style="fill:#eb9481"></path><path d="M195.61,189.07c-1.92.89-4.14,2.1-6.3,1.69s-3.34-2.2-4-4.24a8.44,8.44,0,0,1,.24-6.25,10.43,10.43,0,0,1,4.08-4.17,25.24,25.24,0,0,1,6.76-2.55c.11,0,.06-.18-.05-.16-2.2.43-9,1.54-11.47,6.73a8.62,8.62,0,0,0-.2,6.37c.57,1.94,1.58,3.92,3.64,4.58,2.51.79,5.18-.78,7.38-1.91C195.82,189.11,195.71,189,195.61,189.07Z" style="fill:#263238"></path><path d="M162,177.69l3.59,33.59s-30.64,7.51-38.32,3.33-23-33-26.94-49.29c-2.37-9.9,4.24-14.63,12.7-4.4,8.69,10.52,20.94,25.13,22,25.79S162,177.69,162,177.69Z" style="fill:#152259"></path><path d="M100.35,165.32c3.9,16.27,19.26,45.1,26.94,49.28,2.35,1.28,6.85,1.46,12,1.11l-31.73-59.62v0h0c-.29-.14-.57-.28-.84-.38a3.75,3.75,0,0,0-.43-.16,5.53,5.53,0,0,0-1-.25,3.18,3.18,0,0,0-.43-.06l-.44,0a4.17,4.17,0,0,0-1.88.44,3.35,3.35,0,0,0-.77.54C100,157.73,99.33,161,100.35,165.32Z" style="opacity:0.1"></path><path d="M158.24,210.14c.06-1.14-.09-2.29-.14-3.43s-.14-2.28-.24-3.42c-.18-2.19-.4-4.38-.63-6.57s-.47-4.38-.71-6.57-.38-4.58-.8-6.81a.08.08,0,0,0-.16,0c0,2.28.3,4.58.48,6.84s.36,4.47.55,6.71.39,4.47.62,6.7c.12,1.1.24,2.19.4,3.28a32.6,32.6,0,0,0,.49,3.29C158.12,210.26,158.24,210.22,158.24,210.14Z" style="fill:#263238"></path><path d="M124.74,219.66s-39.48,1.71-56.19-.27c0,0,11.43-48.25,23.61-61.25,5.54-5.92,11-5,15.54-1.21,1.14.95,15.34,19,16.54,25.24,1.06,5.55-3.45,11.71-3.45,11.71Z" style="fill:#ebebeb"></path><polygon points="103.59 169.12 105.69 164.73 109.23 168.09 108.61 171.32 105.19 171.7 103.59 169.12" style="fill:#455a64"></polygon><polygon points="105.19 171.7 106.05 204.49 113.43 219 118.26 204.5 108.61 171.32 105.19 171.7" style="fill:#455a64"></polygon><path d="M107.25,156.35s6.07,16.35,6.44,20.55-1.51,20-1.51,20-9.25-16.64-11.49-22c-3.48-8.36-4.26-20-4.26-20s-3.46,1.58-8,7.82c-6.09,8.35-17.09,39.73-20.69,57.21l41.58,6,4.13-6.84,2.84,6.84,9.86-5.5-5.34-26.46s5.16-5.62,3-13.21C121.43,172.42,107.25,156.35,107.25,156.35Z" style="fill:#152259"></path><path d="M112.18,196.86A160.61,160.61,0,0,1,113.43,219a159.06,159.06,0,0,1-1.25-22.14Z" style="fill:#263238"></path><path d="M108.48,201.66a.91.91,0,1,0,1.82,0,.91.91,0,0,0-1.82,0Zm0,0a1.29,1.29,0,0,1,2.57,0,1.29,1.29,0,0,1-2.57,0Z" style="fill:#263238"></path><path d="M108.82,208.51a.91.91,0,0,0,1.82,0,.91.91,0,0,0-1.82,0Zm0,0a1.29,1.29,0,0,1,2.57,0,1.29,1.29,0,0,1-2.57,0Z" style="fill:#263238"></path><path d="M109.17,215.36a.91.91,0,0,0,1.82,0,.91.91,0,1,0-1.82,0Zm0,0a1.28,1.28,0,1,1,2.56,0,1.28,1.28,0,0,1-2.56,0Z" style="fill:#263238"></path><polygon points="95.18 203.13 80.53 200.48 80.07 202.37 94.84 205.04 95.18 203.13" style="fill:#000102;opacity:0.1"></polygon><path d="M119.13,171.92c-.06-.1.1-.18.16-.09a41.81,41.81,0,0,1,2.69,4.29c-.32-1-.68-1.91-1.07-2.84a0,0,0,0,1,.07,0,23.43,23.43,0,0,1,1.44,3.7c1.86,3.72,2.89,7.77,1.74,12a10.89,10.89,0,0,1-1.82,3.75,8.47,8.47,0,0,0-1.12,1.54c0,.23.53,2.54.63,3.05.72,3.63,1.49,7.26,2.25,10.88.42,2,.83,4.05,1.22,6.08a59.16,59.16,0,0,1,1,5.91c0,.09-.13.1-.16,0a93.62,93.62,0,0,1-2.42-10.58q-1.06-5.33-2.15-10.64a44,44,0,0,1-.88-4.91c.11-.13.57-1,.92-1.46a10.19,10.19,0,0,0,1.09-1.79,14.16,14.16,0,0,0,.92-8.76A29.46,29.46,0,0,0,119.13,171.92Z" style="fill:#263238"></path><path d="M114.27,195.47a43.12,43.12,0,0,0-6.3,1c-1,.26-2,.57-3,.9l-1.51.46a6.91,6.91,0,0,1-1.62.3,0,0,0,0,0,0,.08,11.58,11.58,0,0,0,1.56,0,10.86,10.86,0,0,0,1.49-.28c1.05-.26,2.08-.56,3.12-.83,2.09-.54,4.19-1.08,6.33-1.47C114.39,195.63,114.37,195.46,114.27,195.47Z" style="fill:#263238"></path><path d="M119.51,197.35a44,44,0,0,0-5.26-.25c-.88,0-1.75.07-2.63.15l-1.25.14c-.46.06-.91.18-1.37.23a0,0,0,0,0,0,.08c.43,0,.87,0,1.31,0l1.31,0,2.63-.06c1.75-.06,3.5-.1,5.25-.1C119.61,197.49,119.6,197.36,119.51,197.35Z" style="fill:#263238"></path><polygon points="115.72 242.3 152.34 245.02 163.11 193.71 126.48 190.99 115.72 242.3" style="fill:#263238"></polygon><polygon points="117.52 242.44 154.14 245.16 164.91 193.84 128.28 191.12 117.52 242.44" style="fill:#455a64"></polygon><path d="M146.19,216.23a4,4,0,0,1-4.14,3.27,3.22,3.22,0,0,1-3-3.8,4,4,0,0,1,4.14-3.28A3.23,3.23,0,0,1,146.19,216.23Z" style="fill:#fff"></path><path d="M91.28,158.94C80,171.1,53.86,203.56,59.33,211.21c9,12.56,32.59,25,40.07,28,3.22,1.3,17.33-21.72,14.38-24-3.54-2.73-27.58-13.06-27.24-15.31.2-1.28,4.72-14.81,8.62-28.34C99.68,155.89,95.15,154.78,91.28,158.94Z" style="fill:#eb9481"></path><path d="M101.84,212.44s10.39-2,17.25-3.05c3.82-.56,10.46-.95,13.46-.08,4.49,1.31,22.42,9.62,20.5,14-1.74,4-16.24-5.12-16.24-5.12s15.44,7.88,12.47,12.29-18-8.06-18-8.06,15.68,8.46,11.9,12.51c-2.86,3.06-17.1-7.45-17.1-7.45s13.43,7.36,10.63,10.64c-3.11,3.62-16.85-5.27-16.85-5.27-8.54,7.13-15.52,7.8-20.47,6.37C98.23,238.9,101.84,212.44,101.84,212.44Z" style="fill:#eb9481"></path><path d="M132.36,215.52c11.82,4.94,16.1,11,16,10.85-3.46-3.25-9.72-7-11.48-8s-2.76-1.73-4.52-2.75C132.28,215.56,132.32,215.51,132.36,215.52Z" style="fill:#263238"></path><path d="M127.84,221.43a43.69,43.69,0,0,1,13.33,7.79c.14.14.05.16-.12.06-2.21-1.36-11-6.55-13.24-7.8C127.77,221.47,127.8,221.42,127.84,221.43Z" style="fill:#263238"></path><path d="M123.6,226.26a32.34,32.34,0,0,1,10.14,6.33c.15.13,0,.17-.17.06-3.33-2.17-5.92-3.9-10-6.27C123.48,226.34,123.52,226.22,123.6,226.26Z" style="fill:#263238"></path><path d="M99.65,207.14l-15.29,26.5S58.6,218.26,57.64,208.18s26.6-42.81,31.77-48.09c1.46-1.49,5.38-4.83,7.09-4.24,1.92.66,1.46,3.53.74,10.21-.95,8.9-10.15,32.77-9.71,33.82S99.65,207.14,99.65,207.14Z" style="fill:#152259"></path><path d="M79.8,228.69c.72-.89,1.28-1.91,1.91-2.86s1.23-1.92,1.83-2.9c1.14-1.88,2.26-3.78,3.36-5.68s2.21-3.81,3.31-5.72,2.39-3.92,3.36-6a.08.08,0,0,0-.13-.08c-1.34,1.84-2.46,3.87-3.65,5.81s-2.35,3.82-3.51,5.74-2.32,3.84-3.45,5.78c-.56.95-1.1,1.91-1.61,2.88s-1.13,1.92-1.55,2.94C79.63,228.71,79.75,228.75,79.8,228.69Z" style="fill:#263238"></path><path d="M87.14,199.82a14.68,14.68,0,0,1,.81-3.1c.73-2.16,3.28-10.27,4-12.42.86-2.4,1.69-4.8,2.64-7.17,0-.06.11,0,.1,0-.4,1.45-1,3.37-1.61,5.38.13-.22.26-.43.41-.64a13.1,13.1,0,0,0,1.17-2s0,0,0,0a16.17,16.17,0,0,1-.92,2.09c-.18.34-.38.67-.59,1s-.27.37-.4.55c-1.51,4.78-5,15.67-5.07,15.85s10,6.23,12.22,7.59c.08.06-.29.53-.5.78a.08.08,0,0,1-.13-.08,2.05,2.05,0,0,1,.28-.48C95.81,205.49,87.24,200.3,87.14,199.82Z" style="fill:#263238"></path><path d="M96.82,158.07c.29,1,4.57,6.38,9.31,5.93,1.54-.15,2.11-7.46,2.11-7.46l.11-.63,1.54-8.85L99.29,141l-1.53-.8s-.26,2.45-.55,5.5c0,.14,0,.28,0,.43s0,.34,0,.5c0,.45-.1.92-.14,1.38s-.06.7-.08,1.07,0,.74-.08,1.11A58.52,58.52,0,0,0,96.82,158.07Z" style="fill:#eb9481"></path><path d="M97.21,145.66a18,18,0,0,0,11.14,10.25l1.54-8.85L99.29,141l-1.53-.8S97.5,142.61,97.21,145.66Z" style="fill:#263238"></path><path d="M108.37,156.1l-3,7.09L96.67,154l-2.56,2.86s8.45,14.48,8.51,13.83l3-6.1,4.18,4.34-.18-10.75Z" style="fill:#ebebeb"></path><path d="M110.05,163.64c-.09-1.78-.13-3.57-.3-5.34a.06.06,0,0,0-.12,0c-.38,1.7,0,8.48,0,10.11v0c-.18-.19-3.88-3.83-3.92-3.77-.65,1-2.88,5.41-3,5.82-1.33-2.3-6.46-10.67-8.05-12.85a.06.06,0,0,0-.11.06c1.18,2.42,8,13.69,8.07,13.66a70.05,70.05,0,0,0,3.18-6.46c.62.79,4.35,4.89,4.37,4.63A56.67,56.67,0,0,0,110.05,163.64Z" style="fill:#263238"></path><path d="M123.06,134.21c1.4,15.7-7.84,18.32-11.23,18.62-3.07.27-13.57.8-16.59-14.67s3.83-21.08,10.83-22.08S121.65,118.51,123.06,134.21Z" style="fill:#eb9481"></path><path d="M119.44,131.25a9.58,9.58,0,0,1-1.07-.19,1.74,1.74,0,0,1-1.05-.41.54.54,0,0,1,0-.68,1.37,1.37,0,0,1,1.36-.36,2,2,0,0,1,1.3.68A.59.59,0,0,1,119.44,131.25Z" style="fill:#263238"></path><path d="M108.45,131.61c.37-.06.7-.17,1.06-.26a1.74,1.74,0,0,0,1-.46.56.56,0,0,0,0-.69,1.37,1.37,0,0,0-1.38-.28,2,2,0,0,0-1.26.75A.6.6,0,0,0,108.45,131.61Z" style="fill:#263238"></path><path d="M111.06,135.4s-.08.06-.08.1c.09,1.07,0,2.31-.94,2.72a0,0,0,0,0,0,.06C111.23,138.05,111.31,136.4,111.06,135.4Z" style="fill:#263238"></path><path d="M110,134.33c-1.73,0-1.69,3.43-.08,3.46S111.49,134.37,110,134.33Z" style="fill:#263238"></path><path d="M109.37,134.52c-.31.2-.6.55-1,.59s-.75-.31-1-.65c0,0,0,0-.06,0,0,.66.27,1.34,1,1.43s1.11-.51,1.27-1.18C109.6,134.63,109.49,134.44,109.37,134.52Z" style="fill:#263238"></path><path d="M117.43,135s.08.05.08.1c0,1.07.12,2.3,1.09,2.66a0,0,0,0,1,0,.06C117.41,137.66,117.23,136,117.43,135Z" style="fill:#263238"></path><path d="M118.38,133.89c1.73-.14,1.88,3.32.28,3.45S116.93,134,118.38,133.89Z" style="fill:#263238"></path><path d="M119.11,134.08c.28.18.57.5.9.5s.64-.37.87-.74c0,0,.05,0,.05,0,0,.66-.14,1.36-.77,1.52s-1-.41-1.21-1.06C118.91,134.2,119,134,119.11,134.08Z" style="fill:#263238"></path><path d="M111.51,144.31c.24.27.47.63.86.69a2.76,2.76,0,0,0,1.17-.18,0,0,0,0,1,0,.06,1.45,1.45,0,0,1-1.4.48,1.15,1.15,0,0,1-.77-1A.05.05,0,0,1,111.51,144.31Z" style="fill:#263238"></path><path d="M116.29,140.38s.19,1.61.18,2.37c0,.07-.18.1-.44.11h0a3.6,3.6,0,0,1-3.47-1.41c0-.07,0-.15.12-.1a5.39,5.39,0,0,0,3.26,1c.06-.21-.42-2.74-.3-2.75a6.65,6.65,0,0,1,1.71.42c-.3-3.36-1.14-6.64-1.4-10a.1.1,0,0,1,.2,0,53.89,53.89,0,0,1,2,10.69C118.14,141.11,116.59,140.52,116.29,140.38Z" style="fill:#263238"></path><path d="M115.71,142.74A4.06,4.06,0,0,1,114,144a1.81,1.81,0,0,1-1.13.06c-.82-.22-.83-1-.67-1.61a4.47,4.47,0,0,1,.38-1A5.35,5.35,0,0,0,115.71,142.74Z" style="fill:#263238"></path><path d="M114,144a1.81,1.81,0,0,1-1.13.06c-.82-.22-.83-1-.67-1.61A1.91,1.91,0,0,1,114,144Z" style="fill:#ff9cbd"></path><path d="M109,115.84c-7.51-.74-13.81.69-17,4.31-6.54,7.54-3.29,20.84-6.14,23.26-7.44,6.31-2.5,8.81-4.48,11.14-1.63,1.91-7.9,3.3-5.89,10.4l28.51.8c1-4.66-3.65-7.31-3.85-10.63s3.83-6.5-2.25-13.74C94,136.68,109,115.84,109,115.84Z" style="fill:#263238"></path><path d="M94.65,137.81c1.8.13,6,.4,8.67-1.79,1.46-1.21,2.74-3.27,3.51-7,1.35-6.45,5.82-10.62,12.69-6.85,0,0,1.39-5.77-2.65-8.13s-8.16,1.36-8.16,1.36-8.93-.89-13.7,5.86S94.65,137.81,94.65,137.81Z" style="fill:#263238"></path><path d="M96.19,144a3.69,3.69,0,0,0,.73.18,2.33,2.33,0,0,0,.74,0,2.08,2.08,0,0,0,.91-.3,2.28,2.28,0,0,0,.59-.46,3,3,0,0,0,.6-.88l-.89-4.21s-3.45-4.91-5.68-3.68S93.56,143,96.19,144Z" style="fill:#eb9481"></path><path d="M94,136.7a0,0,0,0,0,0,.07c1.84.74,2.81,2.44,3.5,4.21a1.48,1.48,0,0,0-2.21-.4.06.06,0,0,0,0,.1,1.65,1.65,0,0,1,1.81.57,7.61,7.61,0,0,1,.87,1.46c.09.16.38.07.32-.12l0,0C98.33,140.21,96.5,136.93,94,136.7Z" style="fill:#263238"></path><path d="M96.41,143.34a.72.72,0,0,0,.86.57.73.73,0,0,0,.57-.86.74.74,0,0,0-.87-.57A.72.72,0,0,0,96.41,143.34Z" style="fill:#fff"></path><path d="M94.9,142.25a.53.53,0,0,0,.61.4.52.52,0,1,0-.61-.4Z" style="fill:#fff"></path></g><g id="freepik--speech-bubble--inject-55"><path d="M44.66,109.94A21.62,21.62,0,0,0,80.8,123.62l10.82,1.59-5.42-9.35a21.63,21.63,0,1,0-41.54-5.92Z" style="fill:#fff"></path><path d="M51.13,92.08A21.85,21.85,0,0,1,86.59,116l0-.37L92,125l.4.69-.79-.12-10.81-1.66.26-.08a21.82,21.82,0,0,1-10.7,5.29,20.07,20.07,0,0,1-3,.31,23.12,23.12,0,0,1-3-.06,22,22,0,0,1-11-4.29A23.36,23.36,0,0,1,51,123.16a21.79,21.79,0,0,1,.14-31.08Zm-2,28.78a24.35,24.35,0,0,0,2,2.23A23.06,23.06,0,0,0,53.34,125a20.11,20.11,0,0,0,5.22,2.81,21.21,21.21,0,0,0,5.78,1.27,20.88,20.88,0,0,0,3,0,19.38,19.38,0,0,0,2.93-.36,21.32,21.32,0,0,0,10.36-5.34l.1-.1.15,0,10.83,1.51-.38.57-5.45-9.33-.1-.18.08-.19a21.68,21.68,0,0,0,1.52-9.42,21.41,21.41,0,0,0-2.75-9.16,22.39,22.39,0,0,0-6.47-7.06,21.56,21.56,0,0,0-18.55-2.8,21.38,21.38,0,0,0-10.48,33.6Z" style="fill:#263238"></path><path d="M77.31,107.68a2,2,0,1,1-2-2A2,2,0,0,1,77.31,107.68Z" style="fill:#263238"></path><path d="M67.76,107.68a2,2,0,1,1-2-2A2,2,0,0,1,67.76,107.68Z" style="fill:#263238"></path><path d="M58.22,107.68a2,2,0,1,1-2-2A2,2,0,0,1,58.22,107.68Z" style="fill:#263238"></path></g></svg>
